<svg width="122" height="52" viewBox="0 0 122 52" fill="none" xmlns="http://www.w3.org/2000/svg">
<path d="M121.042 29.2217L121.264 28.7735L120.367 28.3301L120.146 28.7783L120.594 29L121.042 29.2217ZM44.0939 50L44.157 49.504L44.0939 50ZM1.09387 0L-6.4373e-06 5.66893L5.45637 3.78179L1.09387 0ZM3.07327 5.37687L2.609 5.56251C3.06561 6.70443 3.56116 7.88999 4.09461 9.10858L4.55264 8.90807L5.01068 8.70756C4.48153 7.49879 3.99013 6.32314 3.53753 5.19123L3.07327 5.37687ZM6.14232 12.3928L5.69064 12.6072C6.2287 13.7406 6.79615 14.8924 7.39226 16.0553L7.8372 15.8272L8.28215 15.5991C7.6908 14.4455 7.12783 13.3028 6.59401 12.1783L6.14232 12.3928ZM9.6344 19.2025L9.19683 19.4444C9.81054 20.5544 10.4492 21.6677 11.1121 22.7781L11.5414 22.5218L11.9707 22.2655C11.3137 21.165 10.6806 20.0613 10.072 18.9605L9.6344 19.2025ZM13.5615 25.774L13.1416 26.0455C13.8359 27.1192 14.5528 28.1842 15.2919 29.2346L15.7008 28.9469L16.1097 28.6591C15.3785 27.62 14.6689 26.5658 13.9814 25.5025L13.5615 25.774ZM17.9698 32.0292L17.5738 32.3345C18.3604 33.3546 19.1688 34.3541 19.9986 35.3269L20.379 35.0024L20.7594 34.678C19.941 33.7184 19.1429 32.7317 18.3658 31.7239L17.9698 32.0292ZM22.9428 37.8453L22.5813 38.1908C23.4773 39.1282 24.3954 40.0312 25.3349 40.8932L25.6729 40.5247L26.011 40.1563C25.0886 39.3101 24.1861 38.4225 23.3042 37.4998L22.9428 37.8453ZM28.587 43.004L28.2783 43.3973C29.3052 44.2032 30.3552 44.9572 31.4276 45.6516L31.6993 45.2319L31.9711 44.8122C30.9259 44.1354 29.9005 43.3992 28.8957 42.6106L28.587 43.004ZM35.0138 47.1408L34.7884 47.5872C35.9543 48.1759 37.1441 48.6913 38.3569 49.1244L38.5251 48.6535L38.6932 48.1826C37.522 47.7643 36.3703 47.2657 35.2392 46.6945L35.0138 47.1408ZM42.206 49.6867L42.1057 50.1766C42.7419 50.3068 43.3836 50.4136 44.0307 50.496L44.0939 50L44.157 49.504C43.5352 49.4249 42.9183 49.3222 42.3063 49.1969L42.206 49.6867ZM44.0939 50L44.0307 50.496C44.6887 50.5797 45.3419 50.6519 45.9903 50.7127L46.037 50.2148L46.0837 49.717C45.4463 49.6573 44.8041 49.5864 44.157 49.504L44.0939 50ZM49.9283 50.4471L49.9157 50.9469C51.2481 50.9805 52.558 50.9662 53.8448 50.9073L53.8219 50.4078L53.799 49.9083C52.5359 49.9662 51.2496 49.9802 49.9409 49.9472L49.9283 50.4471ZM57.7102 50.087L57.7696 50.5834C59.0925 50.425 60.3881 50.2193 61.6557 49.9701L61.5593 49.4795L61.4628 48.9889C60.2196 49.2333 58.9486 49.4351 57.6507 49.5905L57.7102 50.087ZM65.3499 48.5836L65.4834 49.0655C66.7664 48.7102 68.0168 48.3104 69.2337 47.8706L69.0637 47.4004L68.8938 46.9302C67.7007 47.3613 66.4746 47.7533 65.2165 48.1017L65.3499 48.5836ZM72.6771 45.9356L72.8826 46.3914C74.0963 45.8442 75.2714 45.2576 76.4067 44.6371L76.1669 44.1983L75.9271 43.7596C74.8139 44.3681 73.6617 44.9432 72.4716 45.4797L72.6771 45.9356ZM79.513 42.1991L79.7857 42.6182C80.9036 41.8908 81.9754 41.1313 82.9997 40.3462L82.6956 39.9494L82.3914 39.5525C81.3872 40.3221 80.3364 41.0668 79.2403 41.7801L79.513 42.1991ZM85.6937 37.4605L86.0279 37.8324C87.0256 36.9358 87.9666 36.0173 88.8492 35.0848L88.4861 34.7411L88.123 34.3974C87.2589 35.3103 86.3372 36.2101 85.3595 37.0886L85.6937 37.4605ZM91.0453 31.7972L91.4365 32.1086C92.2814 31.0469 93.0518 29.9783 93.7453 28.9139L93.3263 28.641L92.9074 28.368C92.2317 29.4051 91.4798 30.4482 90.654 31.4859L91.0453 31.7972ZM95.277 25.2628L95.7236 25.4875C96.0273 24.884 96.3044 24.2857 96.5544 23.6948L96.0939 23.5L95.6334 23.3052C95.3923 23.875 95.1245 24.4534 94.8303 25.0381L95.277 25.2628ZM96.0939 23.5L96.5544 23.6948C96.8182 23.0712 97.0121 22.4344 97.1414 21.7897L96.6511 21.6914L96.1609 21.5931C96.0447 22.1729 95.8704 22.7449 95.6334 23.3052L96.0939 23.5ZM96.6865 17.9284L97.1797 17.8462C96.9688 16.5811 96.5581 15.3274 95.9891 14.1192L95.5368 14.3322L95.0844 14.5452C95.6193 15.681 95.9994 16.8469 96.1933 18.0106L96.6865 17.9284ZM93.561 11.1086L93.9583 10.805C93.1791 9.78503 92.293 8.82754 91.3299 7.95921L90.9951 8.33056L90.6603 8.7019C91.5788 9.5301 92.4229 10.4424 93.1636 11.4121L93.561 11.1086ZM87.9655 6.06654L88.2257 5.63955C87.0976 4.95226 85.9154 4.38724 84.7117 3.97641L84.5502 4.44961L84.3887 4.92281C85.5173 5.30801 86.6337 5.84061 87.7054 6.49353L87.9655 6.06654ZM80.8449 3.72821L80.8652 3.22862C79.5321 3.17438 78.2124 3.34764 76.9544 3.79397L77.1216 4.26519L77.2888 4.73641C78.4142 4.3371 79.6052 4.17818 80.8246 4.22779L80.8449 3.72821ZM73.9142 6.21675L73.5755 5.84894C72.6806 6.67294 71.8679 7.7015 71.1592 8.95147L71.5942 9.19806L72.0291 9.44465C72.6918 8.27572 73.4419 7.33135 74.2529 6.58457L73.9142 6.21675ZM70.1036 12.6674L69.6274 12.5147C69.4378 13.1061 69.2642 13.7288 69.1076 14.3837L69.5939 14.5L70.0802 14.6163C70.2312 13.9845 70.3982 13.3861 70.5797 12.8201L70.1036 12.6674ZM69.5939 14.5L69.1076 14.3837C68.9547 15.0231 68.8314 15.6731 68.7365 16.3317L69.2314 16.403L69.7262 16.4743C69.8169 15.8448 69.9346 15.2248 70.0802 14.6163L69.5939 14.5ZM68.9975 20.2683L68.4976 20.2771C68.5203 21.5751 68.6375 22.8902 68.8417 24.2088L69.3358 24.1323L69.8299 24.0558C69.6322 22.7792 69.5193 21.5094 69.4974 20.2596L68.9975 20.2683ZM70.1603 27.9215L69.6788 28.0561C70.0291 29.3092 70.4525 30.5542 70.9431 31.7792L71.4073 31.5933L71.8714 31.4074C71.3939 30.215 70.9822 29.0043 70.6419 27.7869L70.1603 27.9215ZM73.0342 35.1148L72.5917 35.3476C73.2024 36.5084 73.8732 37.6388 74.5984 38.7275L75.0145 38.4503L75.4306 38.173C74.7247 37.1134 74.0715 36.0126 73.4767 34.882L73.0342 35.1148ZM77.3331 41.5569L76.9493 41.8774C77.7986 42.8943 78.6994 43.8557 79.646 44.7492L79.9892 44.3856L80.3324 44.022C79.4159 43.1568 78.5419 42.2243 77.7168 41.2364L77.3331 41.5569ZM82.9763 46.8561L82.6849 47.2624C83.7686 48.0397 84.8964 48.7288 86.0616 49.3146L86.2862 48.8679L86.5108 48.4212C85.3953 47.8603 84.312 47.1988 83.2678 46.4498L82.9763 46.8561ZM89.89 50.2932L89.7505 50.7733C91.0239 51.1434 92.3293 51.3871 93.6583 51.4879L93.6961 50.9893L93.7339 50.4908C92.4772 50.3955 91.24 50.1648 90.0295 49.8131L89.89 50.2932ZM97.5685 50.8599L97.6395 51.3549C98.9118 51.1722 100.195 50.852 101.483 50.3823L101.312 49.9126L101.14 49.4428C99.9165 49.8892 98.7002 50.1923 97.4974 50.365L97.5685 50.8599ZM104.817 48.2505L105.07 48.6817C106.149 48.0483 107.227 47.3029 108.299 46.4389L107.985 46.0496L107.672 45.6603C106.636 46.4951 105.598 47.2121 104.564 47.8192L104.817 48.2505ZM110.849 43.4346L111.207 43.7839C112.081 42.8884 112.949 41.908 113.809 40.8388L113.42 40.5253L113.03 40.2119C112.188 41.2577 111.341 42.2141 110.491 43.0853L110.849 43.4346ZM115.727 37.4103L116.14 37.6927C116.845 36.6616 117.545 35.566 118.236 34.4034L117.806 34.1478L117.376 33.8923C116.695 35.0375 116.008 36.1153 115.315 37.1279L115.727 37.4103ZM119.691 30.7717L120.134 31.0041C120.438 30.4241 120.741 29.83 121.042 29.2217L120.594 29L120.146 28.7783C119.848 29.3796 119.549 29.9665 119.248 30.5393L119.691 30.7717Z" fill="black"/>
</svg>
