<svg width="92" height="89" viewBox="0 0 92 89" fill="none" xmlns="http://www.w3.org/2000/svg">
<path d="M32.6211 73.7297L32.7754 73.2541L32.762 73.2498L32.7483 73.2462L32.6211 73.7297ZM47.9427 58.7799L47.5398 59.076V59.076L47.9427 58.7799ZM47.9427 12.2317L48.1326 11.7691L47.9427 12.2317ZM88.5 0L85.3188 4.818L91.0819 5.16402L88.5 0ZM1.37697 88L1.86899 87.911C1.74275 87.213 1.63093 86.5381 1.5331 85.8857L1.03863 85.9599L0.544154 86.034C0.643554 86.6969 0.75703 87.3817 0.884953 88.089L1.37697 88ZM0.584446 81.8941L1.0833 81.8602C0.982254 80.3727 0.974832 79.0386 1.05183 77.845L0.552865 77.8128L0.0539021 77.7806C-0.0263913 79.0254 -0.0179096 80.4042 0.085595 81.928L0.584446 81.8941ZM1.25215 73.8173L1.72833 73.9698C2.18506 72.5438 2.83903 71.4673 3.64394 70.6663L3.29125 70.3119L2.93856 69.9575C2.00302 70.8885 1.27356 72.1112 0.775979 73.6648L1.25215 73.8173ZM6.83721 68.3896L6.95676 68.8751C8.12139 68.5883 9.43385 68.5074 10.8674 68.5882L10.8956 68.089L10.9237 67.5897C9.42303 67.5053 8.00581 67.5869 6.71765 67.9041L6.83721 68.3896ZM14.9442 68.6415L14.8457 69.1317C16.1175 69.3874 17.437 69.7153 18.7874 70.088L18.9204 69.606L19.0534 69.124C17.6879 68.7472 16.3445 68.413 15.0428 68.1513L14.9442 68.6415ZM22.8403 70.7659L22.6921 71.2435C23.9884 71.6458 25.2896 72.0616 26.5914 72.471L26.7414 71.9941L26.8914 71.5171C25.5961 71.1097 24.2866 70.6913 22.9885 70.2884L22.8403 70.7659ZM30.6541 73.185L30.5153 73.6654C31.1806 73.8577 31.8409 74.0414 32.4938 74.2133L32.6211 73.7297L32.7483 73.2462C32.1045 73.0768 31.4521 72.8952 30.793 72.7047L30.6541 73.185ZM32.6211 73.7297L32.4667 74.2053C33.0547 74.3961 33.6625 74.5831 34.2844 74.7633L34.4236 74.283L34.5627 73.8028C33.951 73.6255 33.3534 73.4417 32.7754 73.2541L32.6211 73.7297ZM38.0862 75.2173L37.979 75.7057C39.2294 75.9802 40.4954 76.2113 41.7388 76.3789L41.8056 75.8834L41.8724 75.3879C40.6599 75.2244 39.4211 74.9985 38.1935 74.7289L38.0862 75.2173ZM45.5695 76.1743L45.5647 76.6743C46.9589 76.6877 48.2753 76.5779 49.44 76.3025L49.325 75.8159L49.21 75.3294C48.1464 75.5808 46.915 75.6872 45.5744 75.6743L45.5695 76.1743ZM52.6017 74.061L52.9765 74.3919C53.8345 73.4199 54.2579 72.1302 54.1608 70.5089L53.6617 70.5388L53.1626 70.5687C53.2466 71.9711 52.8821 72.9878 52.2268 73.7301L52.6017 74.061ZM52.7478 66.89L53.212 66.7042C52.7936 65.6588 52.2319 64.5174 51.5141 63.2725L51.081 63.5223L50.6478 63.772C51.3468 64.9843 51.8862 66.0828 52.2837 67.0758L52.7478 66.89ZM49.0494 60.3315L49.4608 60.0473C49.1109 59.5406 48.7393 59.0196 48.3456 58.4838L47.9427 58.7799L47.5398 59.076C47.9281 59.6044 48.2939 60.1174 48.638 60.6156L49.0494 60.3315ZM47.9427 58.7799L48.3456 58.4838C47.9647 57.9655 47.583 57.443 47.2009 56.9166L46.7963 57.2103L46.3916 57.5041C46.7749 58.032 47.1578 58.5562 47.5398 59.076L47.9427 58.7799ZM44.5227 54.0377L44.931 53.749C44.1847 52.6937 43.441 51.628 42.7036 50.5554L42.2916 50.8387L41.8796 51.1219C42.6195 52.1983 43.3658 53.2677 44.1145 54.3264L44.5227 54.0377ZM40.1048 47.6086L40.5209 47.3313C39.7988 46.2474 39.0868 45.1606 38.3886 44.0745L37.968 44.3449L37.5474 44.6153C38.2487 45.7062 38.9637 46.7976 39.6887 47.8858L40.1048 47.6086ZM35.8903 41.0469L36.3159 40.7845C35.6268 39.6669 34.9566 38.5544 34.3096 37.4513L33.8783 37.7043L33.447 37.9572C34.098 39.0672 34.772 40.186 35.4647 41.3093L35.8903 41.0469ZM31.9462 34.3106L32.3841 34.0693C31.7451 32.91 31.1379 31.7667 30.5675 30.6446L30.1218 30.8711L29.6761 31.0977C30.252 32.2307 30.8645 33.3839 31.5083 34.5519L31.9462 34.3106ZM28.4244 27.3512L28.8797 27.1445C28.3239 25.9204 27.8236 24.7321 27.3863 23.5872L26.9192 23.7656L26.4521 23.944C26.8978 25.1107 27.4061 26.318 27.9691 27.558L28.4244 27.3512ZM25.6843 20.0555L26.1661 19.9221C25.794 18.5779 25.5428 17.3271 25.4257 16.1845L24.9283 16.2355L24.4309 16.2865C24.555 17.4974 24.8191 18.8045 25.2024 20.1889L25.6843 20.0555ZM25.1425 12.3658L25.6249 12.4973C25.9586 11.2727 26.5997 10.3243 27.5912 9.66677L27.3148 9.25008L27.0385 8.83339C25.82 9.64147 25.0491 10.8067 24.6601 12.2344L25.1425 12.3658ZM31.0072 8.11931L31.0471 8.61771C32.121 8.53179 33.3699 8.5794 34.8098 8.77891L34.8785 8.28364L34.9471 7.78837C33.4531 7.58138 32.1296 7.52791 30.9673 7.6209L31.0072 8.11931ZM38.6992 9.05738L38.5747 9.54164C39.7181 9.83551 40.9452 10.1994 42.2598 10.6374L42.4179 10.163L42.5759 9.68864C41.2421 9.2443 39.9924 8.87353 38.8236 8.57312L38.6992 9.05738ZM46.0806 11.488L45.8999 11.9542C46.5023 12.1878 47.1199 12.4344 47.7529 12.6942L47.9427 12.2317L48.1326 11.7691C47.4939 11.5069 46.8702 11.2579 46.2614 11.0218L46.0806 11.488ZM47.9427 12.2317L47.7529 12.6942C48.4341 12.9739 49.1048 13.2408 49.7652 13.4952L49.9449 13.0286L50.1247 12.5621C49.4713 12.3103 48.8073 12.0461 48.1326 11.7691L47.9427 12.2317ZM53.9478 14.4621L53.7913 14.937C55.2219 15.4085 56.5986 15.8169 57.9231 16.166L58.0506 15.6825L58.178 15.199C56.8741 14.8554 55.5169 14.4528 54.1044 13.9872L53.9478 14.4621ZM62.2102 16.6183L62.1197 17.11C63.6184 17.3858 65.0409 17.5774 66.3904 17.6924L66.4328 17.1942L66.4753 16.696C65.1601 16.584 63.7698 16.3968 62.3007 16.1265L62.2102 16.6183ZM70.6979 17.2977L70.7191 17.7973C72.2687 17.7316 73.7011 17.5494 75.0233 17.2667L74.9187 16.7778L74.8142 16.2888C73.5506 16.559 72.1742 16.7347 70.6767 16.7982L70.6979 17.2977ZM78.969 15.4536L79.1774 15.9081C80.5904 15.2602 81.8241 14.4726 82.8948 13.5842L82.5755 13.1994L82.2562 12.8146C81.2532 13.6468 80.0941 14.3876 78.7606 14.9991L78.969 15.4536ZM85.4453 10.0572L85.857 10.3409C86.7159 9.09454 87.3729 7.77285 87.8584 6.44113L87.3887 6.26987L86.9189 6.0986C86.4598 7.35792 85.8403 8.60288 85.0336 9.77343L85.4453 10.0572Z" fill="black"/>
</svg>
