<svg width="108" height="102" viewBox="0 0 108 102" fill="none" xmlns="http://www.w3.org/2000/svg">
<path d="M2.7076 78.9888L5.76987 74.0943L1.66893e-06 73.8895L2.7076 78.9888ZM3.0202 72.9886L3.5187 73.0273C3.62311 71.6828 3.74966 70.3627 3.89752 69.0678L3.40074 69.0111L2.90397 68.9543C2.75472 70.2615 2.62703 71.5935 2.5217 72.9499L3.0202 72.9886ZM3.93226 65.0376L4.42643 65.1137C4.63225 63.7769 4.86173 62.47 5.11384 61.1938L4.62332 61.0969L4.1328 61C3.8779 62.2903 3.64599 63.6111 3.43808 64.9615L3.93226 65.0376ZM5.48616 57.1971L5.97169 57.3165C6.29603 55.9978 6.64587 54.7166 7.01985 53.4738L6.54106 53.3297L6.06226 53.1856C5.68323 54.4452 5.32892 55.743 5.00063 57.0777L5.48616 57.1971ZM7.79746 49.5404L8.26729 49.7115C8.73285 48.4326 9.2259 47.2018 9.74462 46.0203L9.2868 45.8193L8.82897 45.6183C8.30127 46.8203 7.80025 48.0711 7.32762 49.3694L7.79746 49.5404ZM11.0259 42.2171L11.4676 42.4514C12.1046 41.2503 12.7711 40.1127 13.4645 39.0402L13.0446 38.7687L12.6247 38.4973C11.9149 39.5951 11.234 40.7577 10.5842 41.9828L11.0259 42.2171ZM15.3785 35.5239L15.7684 35.8368C16.6199 34.7757 17.5025 33.8019 18.4122 32.9176L18.0637 32.559L17.7152 32.2005C16.7741 33.1152 15.8641 34.1198 14.9885 35.211L15.3785 35.5239ZM21.1266 29.9856L21.4177 30.3921C22.5105 29.6094 23.6329 28.9453 24.7796 28.4028L24.5658 27.9508L24.352 27.4988C23.148 28.0684 21.9741 28.7636 20.8355 29.5791L21.1266 29.9856ZM28.3282 26.6186L28.4446 27.1049C29.7074 26.8026 30.9932 26.64 32.2965 26.6217L32.2894 26.1217L32.2824 25.6218C30.9048 25.6412 29.5456 25.8131 28.2118 26.1323L28.3282 26.6186ZM36.2661 26.4965L36.1673 26.9866C36.7958 27.1133 37.4274 27.2732 38.0615 27.4669L38.2076 26.9888L38.3537 26.5106C37.6891 26.3075 37.026 26.1396 36.3649 26.0063L36.2661 26.4965ZM38.2076 26.9888L38.0615 27.4669C38.646 27.6455 39.2154 27.9127 39.7714 28.2649L40.0389 27.8425L40.3065 27.4201C39.6825 27.0249 39.0321 26.7179 38.3537 26.5106L38.2076 26.9888ZM42.9953 30.6022L42.6044 30.914C43.361 31.8621 44.0861 32.9736 44.7836 34.228L45.2206 33.985L45.6576 33.742C44.9398 32.4513 44.1848 31.2912 43.3861 30.2903L42.9953 30.6022ZM47.0104 37.6308L46.5524 37.8315C47.0679 39.0074 47.5668 40.2571 48.0515 41.5691L48.5205 41.3958L48.9895 41.2225C48.4992 39.8953 47.993 38.6269 47.4683 37.43L47.0104 37.6308ZM49.85 45.2426L49.3744 45.3971C49.7824 46.653 50.1808 47.948 50.5714 49.2737L51.051 49.1324L51.5307 48.991C51.1378 47.658 50.7367 46.3541 50.3255 45.0881L49.85 45.2426ZM52.159 53.0377L51.6768 53.1698C52.0299 54.4584 52.3777 55.7663 52.7216 57.0867L53.2055 56.9607L53.6894 56.8347C53.3446 55.511 52.9957 54.1989 52.6412 52.9055L52.159 53.0377ZM54.2129 60.8964L53.7281 61.0187C54.0589 62.3293 54.3872 63.6449 54.7147 64.9594L55.1998 64.8385L55.685 64.7176C55.3575 63.403 55.0289 62.0862 54.6977 60.774L54.2129 60.8964ZM56.1835 68.7821L55.6985 68.9036C56.0304 70.2284 56.3628 71.5451 56.6972 72.8466L57.1814 72.7222L57.6657 72.5978C57.332 71.2989 57.0001 69.9843 56.6685 68.6606L56.1835 68.7821ZM58.2129 76.6525L57.7301 76.7824C58.089 78.1164 58.4519 79.4259 58.8204 80.7026L59.3008 80.5639L59.7812 80.4253C59.4146 79.1555 59.0534 77.8519 58.6958 76.5226L58.2129 76.6525ZM60.4738 84.4405L59.9974 84.5924C60.4277 85.9422 60.8677 87.2405 61.32 88.4753L61.7895 88.3033L62.259 88.1314C61.8125 86.9122 61.377 85.6275 60.9502 84.2887L60.4738 84.4405ZM63.305 92.0733L62.8483 92.2767C63.4475 93.6218 64.0718 94.8532 64.7266 95.9461L65.1555 95.6892L65.5844 95.4322C64.955 94.3816 64.3488 93.1876 63.7617 91.8698L63.305 92.0733ZM67.6024 98.9114L67.2523 99.2684C68.3827 100.377 69.6253 101.117 70.998 101.354L71.083 100.861L71.1679 100.368C70.0494 100.176 68.9826 99.5648 67.9525 98.5545L67.6024 98.9114ZM74.998 100.105L75.2307 100.547C75.8139 100.241 76.4079 99.8536 77.0139 99.384L76.7076 98.9888L76.4013 98.5936C75.8346 99.0327 75.2896 99.3867 74.7653 99.6624L74.998 100.105ZM76.7076 98.9888L77.0139 99.384C77.5771 98.9475 78.0945 98.4681 78.569 97.9487L78.1999 97.6114L77.8307 97.2742C77.3939 97.7523 76.9185 98.1927 76.4013 98.5936L76.7076 98.9888ZM80.4294 94.2514L80.8804 94.4672C81.456 93.2643 81.9095 91.9505 82.2615 90.543L81.7764 90.4217L81.2913 90.3004C80.9527 91.6547 80.5201 92.9034 79.9784 94.0357L80.4294 94.2514ZM82.4868 86.4407L82.9834 86.4994C83.1384 85.1885 83.2354 83.8188 83.2855 82.3991L82.7858 82.3815L82.2861 82.3638C82.2368 83.7611 82.1415 85.103 81.9903 86.382L82.4868 86.4407ZM82.8121 78.3186L83.312 78.3094C83.2874 76.9857 83.2344 75.6281 83.16 74.2426L82.6607 74.2694L82.1614 74.2962C82.2353 75.6724 82.2879 77.0181 82.3122 78.3279L82.8121 78.3186ZM82.3949 70.2202L82.8935 70.1824C82.7926 68.8502 82.6792 67.4978 82.5589 66.13L82.0609 66.1737L81.5628 66.2175C81.6828 67.5829 81.7958 68.9311 81.8964 70.258L82.3949 70.2202ZM81.6947 62.1292L82.1926 62.0835C82.0696 60.7449 81.9454 59.3962 81.8249 58.0404L81.3269 58.0847L80.8289 58.1289C80.9495 59.4865 81.0738 60.8368 81.1968 62.175L81.6947 62.1292ZM80.9848 54.0379L81.4833 53.9984C81.3767 52.6523 81.2787 51.3035 81.1939 49.9557L80.6948 49.9871L80.1958 50.0185C80.281 51.3727 80.3795 52.727 80.4864 54.0773L80.9848 54.0379ZM80.4841 45.9317L80.9837 45.9118C80.9297 44.5575 80.8941 43.2083 80.8818 41.8678L80.3818 41.8724L79.8818 41.877C79.8943 43.229 79.9302 44.5885 79.9845 45.9516L80.4841 45.9317ZM80.4208 37.8125L80.9206 37.8275C80.9614 36.4696 81.032 35.1254 81.1376 33.7988L80.6392 33.7591L80.1408 33.7194C80.0337 35.0641 79.9623 36.4249 79.921 37.7975L80.4208 37.8125ZM81.0815 29.7254L81.5766 29.7958C81.7675 28.4518 82.0026 27.1321 82.2877 25.8414L81.7995 25.7335L81.3112 25.6257C81.0202 26.9435 80.7807 28.2883 80.5865 29.6551L81.0815 29.7254ZM82.8512 21.8186L83.3273 21.9714C83.7396 20.6865 84.2133 19.4388 84.7551 18.2333L84.299 18.0283L83.843 17.8234C83.2848 19.0654 82.798 20.3481 82.3751 21.6658L82.8512 21.8186ZM86.1928 14.4424L86.6185 14.7047C87.313 13.5774 88.0842 12.4983 88.9394 11.4726L88.5554 11.1524L88.1714 10.8322C87.2845 11.8959 86.4856 13.0139 85.7671 14.1802L86.1928 14.4424ZM91.3705 8.24153L91.7034 8.61461C92.6705 7.75169 93.7192 6.93993 94.8557 6.18404L94.5788 5.76771L94.3019 5.35138C93.1265 6.13312 92.0404 6.97373 91.0376 7.86846L91.3705 8.24153ZM98.092 3.74904L98.3134 4.19732C99.4639 3.62894 100.687 3.10699 101.988 2.6349L101.818 2.16489L101.647 1.69488C100.313 2.17902 99.0555 2.71533 97.8705 3.30076L98.092 3.74904ZM105.683 0.969462L105.809 1.45336C106.46 1.28392 107.128 1.1252 107.813 0.977522L107.708 0.488762L107.602 1.37091e-06C106.904 0.150561 106.223 0.312507 105.557 0.485567L105.683 0.969462Z" fill="black"/>
</svg>
