<svg width="71" height="115" viewBox="0 0 71 115" fill="none" xmlns="http://www.w3.org/2000/svg">
<path d="M49.6538 74.499L49.7124 74.9956L49.7336 74.9931L49.7544 74.9888L49.6538 74.499ZM13.1538 114.499L14.7292 108.945L9.13123 110.357L13.1538 114.499ZM11.8598 108.459L12.3534 108.378C12.1449 107.095 11.9624 105.738 11.8151 104.321L11.3177 104.373L10.8204 104.425C10.9698 105.861 11.1548 107.236 11.3663 108.539L11.8598 108.459ZM11.0035 100.259L11.5029 100.234C11.4377 98.9022 11.4061 97.5335 11.4143 96.1374L10.9143 96.1344L10.4143 96.1315C10.406 97.5465 10.438 98.9334 10.5041 100.283L11.0035 100.259ZM11.0549 92.013L11.5539 92.0443C11.6384 90.6995 11.7627 89.3386 11.9319 87.9688L11.4357 87.9075L10.9394 87.8462C10.7677 89.2368 10.6415 90.6177 10.5559 91.9816L11.0549 92.013ZM12.0712 83.8338L12.5624 83.9269C12.8147 82.5969 13.1131 81.2654 13.462 79.9391L12.9785 79.8118L12.4949 79.6846C12.1398 81.0346 11.8363 82.3888 11.5799 83.7406L12.0712 83.8338ZM14.1757 75.8666L14.6482 76.03C15.091 74.7502 15.5861 73.4814 16.1377 72.2297L15.6802 72.0281L15.2226 71.8264C14.6595 73.1042 14.1544 74.3986 13.7032 75.7031L14.1757 75.8666ZM17.5059 68.3315L17.9438 68.5726C18.595 67.3901 19.3039 66.2296 20.0742 65.0965L19.6607 64.8153L19.2472 64.5342C18.4587 65.694 17.7336 66.8813 17.0679 68.0903L17.5059 68.3315ZM22.1398 61.5247L22.5239 61.8447C23.3819 60.8152 24.3 59.8157 25.2816 58.8513L24.9312 58.4946L24.5808 58.138C23.5751 59.126 22.6345 60.1499 21.7557 61.2046L22.1398 61.5247ZM28.0127 55.7545L28.3261 56.144C28.8515 55.7214 29.3919 55.3077 29.9478 54.9034L29.6538 54.499L29.3597 54.0947C28.7906 54.5085 28.2373 54.9321 27.6993 55.3649L28.0127 55.7545ZM29.6538 54.499L29.9478 54.9034C30.4668 54.526 30.986 54.1677 31.5052 53.8278L31.2314 53.4095L30.9575 52.9911C30.4245 53.34 29.8917 53.7077 29.3597 54.0947L29.6538 54.499ZM34.4989 51.5038L34.7274 51.9486C35.8733 51.3597 37.0142 50.8561 38.145 50.4316L37.9693 49.9635L37.7936 49.4954C36.6263 49.9336 35.4501 50.4529 34.2703 51.0591L34.4989 51.5038ZM41.5974 48.8524L41.7132 49.3388C42.9583 49.0424 44.184 48.8386 45.3832 48.7189L45.3335 48.2214L45.2839 47.7238C44.04 47.848 42.7701 48.0593 41.4816 48.366L41.5974 48.8524ZM49.1235 48.112L49.1019 48.6116C50.3797 48.6668 51.6144 48.8172 52.7959 49.0507L52.8929 48.5602L52.9898 48.0696C51.7584 47.8263 50.4733 47.6699 49.1451 47.6125L49.1235 48.112ZM56.5411 49.592L56.3656 50.0602C57.5652 50.5098 58.6817 51.0497 59.7004 51.6619L59.958 51.2333L60.2155 50.8048C59.143 50.1602 57.9714 49.5941 56.7165 49.1238L56.5411 49.592ZM62.9851 53.5138L62.6415 53.8771C63.5738 54.759 64.3458 55.7123 64.9364 56.7073L65.3664 56.4521L65.7963 56.1969C65.1539 55.1147 64.3216 54.0898 63.3287 53.1506L62.9851 53.5138ZM66.6881 59.9853L66.1947 60.0662C66.3869 61.2386 66.3278 62.4287 65.9854 63.6016L66.4654 63.7417L66.9454 63.8818C67.3311 62.5602 67.397 61.2188 67.1815 59.9044L66.6881 59.9853ZM64.6979 67.0676L64.3071 66.7557C63.6188 67.6184 62.7384 68.4574 61.6456 69.253L61.94 69.6572L62.2343 70.0614C63.3905 69.2196 64.3383 68.32 65.0888 67.3794L64.6979 67.0676ZM58.6817 71.5882L58.4632 71.1385C57.4286 71.6411 56.2805 72.1129 55.0126 72.5467L55.1744 73.0198L55.3363 73.4929C56.6391 73.0471 57.8255 72.5601 58.9002 72.038L58.6817 71.5882ZM51.5453 74.0741L51.4264 73.5885C50.8228 73.7362 50.1985 73.8766 49.5531 74.0093L49.6538 74.499L49.7544 74.9888C50.4115 74.8538 51.048 74.7106 51.6642 74.5598L51.5453 74.0741ZM49.6538 74.499L49.5951 74.0025C48.9111 74.0833 48.2314 74.1516 47.5563 74.2076L47.5976 74.7059L47.6389 75.2042C48.3257 75.1472 49.017 75.0778 49.7124 74.9956L49.6538 74.499ZM43.5273 74.8992L43.5214 74.3992C42.155 74.4151 40.8097 74.3805 39.4874 74.2978L39.4562 74.7968L39.425 75.2959C40.772 75.3801 42.142 75.4154 43.5331 75.3991L43.5273 74.8992ZM35.3904 74.3854L35.46 73.8903C34.1031 73.6994 32.7745 73.4571 31.4765 73.1666L31.3673 73.6545L31.2581 74.1425C32.5824 74.4389 33.9374 74.686 35.3207 74.8806L35.3904 74.3854ZM27.4206 72.5977L27.5701 72.1206C26.2657 71.7119 24.9981 71.2529 23.7699 70.7474L23.5796 71.2098L23.3893 71.6721C24.6445 72.1887 25.9393 72.6575 27.2711 73.0748L27.4206 72.5977ZM19.8772 69.4879L20.1085 69.0446C18.8983 68.4132 17.7352 67.7342 16.6223 67.0121L16.3502 67.4315L16.078 67.851C17.2177 68.5905 18.408 69.2854 19.6459 69.9312L19.8772 69.4879ZM13.0395 65.0431L13.3521 64.6528C12.2884 63.8009 11.2844 62.9059 10.3436 61.9733L9.99162 62.3284L9.6396 62.6835C10.6058 63.6414 11.6362 64.5597 12.727 65.4333L13.0395 65.0431ZM7.25871 59.2983L7.64853 58.9852C6.7979 57.9262 6.02184 56.8314 5.32451 55.7071L4.8996 55.9707L4.47469 56.2342C5.19392 57.3938 5.99353 58.5216 6.8689 59.6114L7.25871 59.2983ZM2.97817 52.3713L3.43392 52.1657C2.87812 50.9339 2.41301 49.6766 2.04327 48.401L1.56304 48.5402L1.08281 48.6794C1.46606 50.0017 1.94772 51.3033 2.52241 52.577L2.97817 52.3713ZM0.723328 44.5474L1.21904 44.4821C1.04488 43.1606 0.973191 41.8271 1.00895 40.4887L0.509127 40.4753L0.00930512 40.462C-0.0278818 41.8539 0.0466974 43.24 0.227615 44.6128L0.723328 44.5474ZM0.943286 36.4199L1.43462 36.5126C1.67822 35.2211 2.02611 33.9309 2.48306 32.6481L2.01205 32.4803L1.54104 32.3125C1.06676 33.644 0.705229 34.9845 0.45195 36.3273L0.943286 36.4199ZM3.66401 28.744L4.10555 28.9786C4.71662 27.8285 5.42222 26.6892 6.22616 25.5656L5.81952 25.2746L5.41289 24.9837C4.5839 26.1423 3.85483 27.3192 3.22246 28.5094L3.66401 28.744ZM8.38738 22.1061L8.7571 22.4427C9.6299 21.4841 10.5816 20.541 11.6149 19.6171L11.2816 19.2444L10.9483 18.8717C9.89049 19.8176 8.91432 20.7846 8.01766 21.7695L8.38738 22.1061ZM14.433 16.6753L14.7317 17.0763C15.7756 16.2984 16.8844 15.5377 18.0596 14.7966L17.7929 14.3737L17.5262 13.9507C16.3299 14.7052 15.1997 15.4805 14.1342 16.2744L14.433 16.6753ZM21.3323 12.3104L21.5696 12.7506C22.7311 12.1244 23.9469 11.5155 25.2179 10.9256L25.0074 10.4721L24.797 10.0185C23.5084 10.6165 22.2748 11.2343 21.095 11.8703L21.3323 12.3104ZM28.7122 8.87056L28.8988 9.33441C30.1257 8.84072 31.3974 8.36339 32.7149 7.9036L32.5501 7.43153L32.3854 6.95945C31.0536 7.42421 29.7673 7.90701 28.5255 8.40671L28.7122 8.87056ZM36.4405 6.16588L36.5854 6.64441C37.8423 6.26377 39.1364 5.89807 40.4684 5.54815L40.3413 5.06456L40.2143 4.58097C38.8707 4.93395 37.5646 5.30301 36.2955 5.68734L36.4405 6.16588ZM44.3626 4.08269L44.473 4.57035C45.7477 4.28176 47.054 4.00682 48.3923 3.74615L48.2967 3.25537L48.2011 2.76459C46.8532 3.02715 45.537 3.30416 44.2522 3.59503L44.3626 4.08269ZM52.3844 2.52041L52.466 3.01371C53.7558 2.80047 55.0731 2.59983 56.4181 2.41227L56.349 1.91706L56.2799 1.42185C54.9268 1.61055 53.6012 1.81246 52.3029 2.0271L52.3844 2.52041ZM60.4553 1.39536L60.5124 1.89209C61.8206 1.74164 63.1532 1.60301 64.5107 1.47662L64.4643 0.978771L64.418 0.480924C63.0535 0.607978 61.7136 0.747344 60.3982 0.898639L60.4553 1.39536ZM68.5544 0.640653L68.5906 1.13934C69.2826 1.08918 69.9807 1.04206 70.6849 0.99805L70.6538 0.499023L70.6226 -2.86102e-06C69.9151 0.0442154 69.2136 0.0915521 68.5182 0.141961L68.5544 0.640653Z" fill="black"/>
</svg>
