<svg width="104" height="52" viewBox="0 0 104 52" fill="none" xmlns="http://www.w3.org/2000/svg">
<path d="M72.4369 29.1707L72.8818 29.3989L72.8946 29.3739L72.9046 29.3476L72.4369 29.1707ZM63.4369 2.17069L63.6363 2.62923L63.4369 2.17069ZM103.437 38.6707L98.3183 35.9999L98.5647 41.7682L103.437 38.6707ZM0.436935 12.1707L-6.64592e-06 12.4138C0.343898 13.032 0.687283 13.6414 1.03013 14.2422L1.46439 13.9944L1.89865 13.7465C1.55764 13.149 1.21604 12.5427 0.873877 11.9276L0.436935 12.1707ZM3.50922 17.4858L3.08074 17.7435C3.81033 18.9566 4.53736 20.1309 5.2617 21.2671L5.68332 20.9984L6.10493 20.7296C5.38542 19.6009 4.66296 18.434 3.9377 17.2281L3.50922 17.4858ZM7.9323 24.4178L7.51868 24.6987C8.30528 25.8569 9.08851 26.9707 9.86821 28.0414L10.2724 27.7471L10.6766 27.4527C9.90355 26.3912 9.1266 25.2863 8.34592 24.1369L7.9323 24.4178ZM12.7254 30.9891L12.3326 31.2984C13.212 32.4155 14.0866 33.4783 14.9563 34.4886L15.3352 34.1624L15.7142 33.8362C14.8545 32.8374 13.9891 31.7859 13.1183 30.6798L12.7254 30.9891ZM18.0836 37.1993L17.7217 37.5444C18.7048 38.5751 19.681 39.5394 20.6499 40.4401L20.9903 40.0738L21.3307 39.7076C20.3772 38.8213 19.4152 37.8711 18.4454 36.8543L18.0836 37.1993ZM24.074 42.7465L23.7607 43.1361C24.8767 44.0334 25.9823 44.8472 27.077 45.5817L27.3556 45.1665L27.6342 44.7514C26.5646 44.0337 25.4821 43.237 24.3873 42.3568L24.074 42.7465ZM30.8777 47.2787L30.6442 47.7208C31.9203 48.395 33.1799 48.9628 34.4218 49.4311L34.5982 48.9632L34.7747 48.4954C33.5736 48.0425 32.3521 47.4921 31.1113 46.8366L30.8777 47.2787ZM38.5104 50.1252L38.4045 50.6139C39.8083 50.9179 41.1852 51.0964 42.5331 51.1607L42.557 50.6613L42.5808 50.1619C41.2886 50.1002 39.9666 49.929 38.6162 49.6365L38.5104 50.1252ZM46.6404 50.5005L46.7036 50.9965C48.101 50.8184 49.4598 50.5199 50.7775 50.1168L50.6313 49.6387L50.485 49.1605C49.2192 49.5477 47.916 49.8339 46.5772 50.0045L46.6404 50.5005ZM54.4312 48.1383L54.6497 48.5881C55.8961 47.9826 57.0977 47.2866 58.2523 46.5165L57.9749 46.1006L57.6974 45.6846C56.5778 46.4313 55.4155 47.1043 54.2127 47.6886L54.4312 48.1383ZM61.2338 43.6323L61.5579 44.013C62.6099 43.1174 63.6138 42.1642 64.5674 41.1693L64.2065 40.8233L63.8455 40.4773C62.9136 41.4496 61.9342 42.3793 60.9096 43.2516L61.2338 43.6323ZM66.8996 37.7443L67.29 38.0566C68.1599 36.9692 68.9754 35.8539 69.7343 34.7274L69.3196 34.448L68.9049 34.1687C68.1606 35.2736 67.3612 36.3668 66.5091 37.432L66.8996 37.7443ZM71.4676 30.9706L71.903 31.2164C72.2464 30.6082 72.5728 30.0015 72.8818 29.3989L72.4369 29.1707L71.992 28.9425C71.6891 29.5333 71.369 30.1282 71.0322 30.7248L71.4676 30.9706ZM72.4369 29.1707L72.9046 29.3476C73.1323 28.7458 73.3601 28.1197 73.5854 27.474L73.1133 27.3092L72.6412 27.1445C72.4188 27.7821 72.1939 28.4001 71.9693 28.9937L72.4369 29.1707ZM74.3286 23.5249L74.8083 23.6658C75.1792 22.4033 75.5261 21.1049 75.8337 19.7977L75.347 19.6832L74.8603 19.5687C74.5572 20.8566 74.2151 22.1374 73.8489 23.384L74.3286 23.5249ZM76.1304 15.7897L76.6238 15.8708C76.8471 14.5119 77.0106 13.1707 77.0961 11.8788L76.5972 11.8458L76.0983 11.8128C76.0153 13.0672 75.856 14.3758 75.6371 15.7086L76.1304 15.7897ZM76.5715 7.87522L77.0693 7.82784C76.9282 6.34583 76.6209 4.985 76.096 3.82576L75.6405 4.03199L75.185 4.23823C75.6512 5.26781 75.9396 6.51327 76.0738 7.92261L76.5715 7.87522ZM73.0238 1.15099L73.2506 0.705398C72.1217 0.130752 70.7458 -0.103424 69.1069 0.042101L69.1511 0.540141L69.1953 1.03818C70.6908 0.905398 71.8704 1.12492 72.7969 1.59658L73.0238 1.15099ZM65.2934 1.43864L65.1279 0.966829C64.5246 1.17848 63.8947 1.42643 63.2376 1.71216L63.4369 2.17069L63.6363 2.62923C64.2733 2.35225 64.8805 2.11335 65.4589 1.91046L65.2934 1.43864ZM63.4369 2.17069L63.2376 1.71216C62.5743 2.00052 61.9534 2.30469 61.3739 2.62376L61.6151 3.06176L61.8563 3.49975C62.4067 3.1967 62.9995 2.90609 63.6363 2.62923L63.4369 2.17069ZM58.3611 5.41815L58.0122 5.06004C56.9144 6.12969 56.1242 7.29879 55.6253 8.54341L56.0894 8.72945L56.5535 8.91548C56.9958 7.81194 57.7029 6.75759 58.71 5.77627L58.3611 5.41815ZM55.5017 12.6815L55.0031 12.7183C55.1014 14.0502 55.4569 15.4085 56.0349 16.768L56.495 16.5723L56.9552 16.3767C56.4128 15.101 56.0893 13.85 56.0004 12.6447L55.5017 12.6815ZM58.4832 20.0841L58.0743 20.372C58.8258 21.4391 59.7016 22.4981 60.6879 23.5377L61.0506 23.1935L61.4134 22.8494C60.4566 21.841 59.6124 20.8194 58.892 19.7963L58.4832 20.0841ZM63.987 25.9537L63.6643 26.3357C64.6724 27.1875 65.7537 28.0187 66.9001 28.8222L67.187 28.4128L67.474 28.0033C66.3509 27.2162 65.2937 26.4033 64.3097 25.5718L63.987 25.9537ZM70.5887 30.5992L70.3347 31.0299C71.4802 31.7052 72.6735 32.3524 73.9088 32.9663L74.1313 32.5186L74.3538 32.0708C73.1395 31.4674 71.9672 30.8314 70.8426 30.1685L70.5887 30.5992ZM77.8108 34.1929L77.6192 34.6547C78.8561 35.1679 80.1255 35.6469 81.4226 36.0872L81.5833 35.6138L81.744 35.1403C80.4679 34.7071 79.2191 34.2359 78.0024 33.731L77.8108 34.1929ZM85.448 36.785L85.3188 37.2681C86.6202 37.6159 87.943 37.9236 89.283 38.1869L89.3794 37.6963L89.4758 37.2057C88.1582 36.9467 86.8572 36.6442 85.5771 36.302L85.448 36.785ZM93.3635 38.3377L93.3013 38.8338C94.6428 39.002 95.9968 39.1239 97.359 39.1956L97.3853 38.6963L97.4116 38.197C96.074 38.1266 94.744 38.0069 93.4257 37.8416L93.3635 38.3377Z" fill="black"/>
</svg>
